<?xml version="1.0" standalone="no"?>
<!DOCTYPE svg PUBLIC "-//W3C//DTD SVG 20010904//EN"
 "http://www.w3.org/TR/2001/REC-SVG-20010904/DTD/svg10.dtd">
<svg version="1.0" xmlns="http://www.w3.org/2000/svg"
 width="2048.000000pt" height="2048.000000pt" viewBox="0 0 2048.000000 2048.000000"
 preserveAspectRatio="xMidYMid meet">

<g transform="translate(0.000000,2048.000000) scale(0.100000,-0.100000)"
fill="#000000" stroke="none">
<path d="M10030 14094 c-259 -75 -350 -106 -345 -114 3 -5 14 -6 25 -3 11 3
20 0 20 -6 0 -6 -7 -11 -15 -11 -13 0 -14 -4 -4 -21 8 -16 8 -20 -1 -14 -9 6
-9 3 -1 -12 6 -11 8 -23 5 -26 -3 -3 -1 -15 6 -26 8 -16 8 -21 -1 -21 -8 0 -8
-4 -1 -13 6 -7 9 -22 6 -34 -3 -11 -1 -24 4 -27 6 -3 8 -15 5 -25 -3 -10 0
-22 6 -25 15 -10 14 -22 -6 -42 -16 -16 -15 -17 32 -10 28 5 136 29 240 56
105 26 201 50 215 52 18 2 27 11 31 33 l7 30 1 -27 c1 -30 1 -30 44 -33 17 -1
27 3 27 11 0 8 -4 14 -9 14 -5 0 -11 16 -13 35 -4 31 -2 33 12 20 9 -8 21 -15
26 -15 5 0 5 4 -1 8 -17 12 -36 52 -30 62 3 6 -1 7 -10 3 -10 -3 -7 5 9 20 14
14 26 32 26 39 0 10 -2 10 -9 -1 -7 -11 -11 -10 -20 7 -14 26 1 37 31 22 21
-10 21 -10 6 3 -21 16 -23 34 -6 39 9 3 9 6 0 12 -7 4 -12 2 -12 -3 0 -6 -4
-11 -10 -11 -5 0 -10 6 -10 14 0 8 -6 17 -12 20 -7 3 -4 4 7 1 11 -2 27 0 35
6 13 9 12 10 -2 5 -10 -3 -20 -1 -23 3 -9 15 22 20 60 10 20 -6 42 -8 48 -6
18 6 -144 57 -178 56 -17 0 -113 -25 -215 -55z m240 12 c0 -3 -4 -8 -10 -11
-5 -3 -10 -1 -10 4 0 6 5 11 10 11 6 0 10 -2 10 -4z m-13 -208 c-2 -35 -3 -7
-3 62 0 69 1 97 3 63 2 -35 2 -91 0 -125z"/>
<path d="M9448 14023 c7 -3 16 -2 19 1 4 3 -2 6 -13 5 -11 0 -14 -3 -6 -6z"/>
<path d="M9270 13980 c-73 -24 -52 -25 30 -1 36 11 56 20 45 20 -11 0 -45 -8
-75 -19z"/>
<path d="M9165 13950 c-13 -5 -14 -9 -5 -9 8 0 24 4 35 9 13 5 14 9 5 9 -8 0
-24 -4 -35 -9z"/>
<path d="M9118 13933 c7 -3 16 -2 19 1 4 3 -2 6 -13 5 -11 0 -14 -3 -6 -6z"/>
<path d="M8960 13895 c-237 -68 -287 -85 -253 -85 14 0 308 85 358 104 69 25
15 16 -105 -19z"/>
<path d="M10254 13745 c-3 -8 -3 -18 0 -24 4 -5 1 -13 -5 -17 -14 -8 -226 -64
-759 -200 -206 -52 -427 -110 -490 -128 -63 -18 -153 -43 -200 -56 -156 -41
-504 -148 -620 -190 -63 -23 -176 -62 -250 -87 -74 -25 -138 -49 -141 -52 -4
-3 -9 -346 -10 -761 l-4 -755 78 -3 77 -3 0 707 c0 389 3 711 7 714 19 17 595
194 928 285 94 25 222 62 285 82 63 19 131 39 150 43 19 5 51 13 70 18 19 6
109 30 200 55 91 25 250 66 355 92 104 26 218 56 252 66 57 18 67 18 105 5 24
-7 108 -30 188 -51 189 -48 833 -221 1078 -290 105 -30 281 -80 390 -110 108
-31 290 -86 405 -122 l207 -67 0 -245 c0 -224 9 -491 15 -499 5 -5 67 28 102
54 l32 24 1 352 c0 194 2 362 4 373 2 11 -1 31 -6 44 -7 19 -6 22 8 17 8 -3
22 -6 29 -6 7 0 13 -6 12 -12 -1 -44 4 -151 7 -147 3 2 7 46 11 96 5 83 4 93
-13 102 -10 5 -104 35 -209 65 -105 31 -266 80 -359 111 -254 84 -608 178
-709 188 -33 3 -53 3 -45 0 31 -10 100 -43 100 -47 0 -2 -17 0 -37 6 -21 5
-72 17 -113 28 -41 10 -106 27 -145 39 -38 11 -115 32 -170 46 -55 13 -188 50
-295 80 -107 31 -237 67 -289 80 -52 14 -96 27 -99 30 -14 14 11 14 79 1 40
-7 79 -12 85 -9 7 2 15 0 19 -6 3 -6 11 -11 17 -11 7 0 6 6 -2 15 -7 8 -20 15
-29 15 -10 0 -51 12 -92 26 -41 14 -85 28 -99 30 -14 2 -41 8 -60 14 -43 12
-40 13 -46 -5z m1326 -385 c13 -8 13 -10 -2 -10 -9 0 -20 5 -23 10 -8 13 5 13
25 0z m60 -20 c18 -12 2 -12 -25 0 -13 6 -15 9 -5 9 8 0 22 -4 30 -9z"/>
<path d="M7630 13389 c-19 -6 -93 -28 -164 -50 l-129 -41 7 -331 c13 -661 18
-786 31 -742 6 22 9 47 6 55 -3 8 10 3 28 -13 31 -26 35 -27 56 -13 21 14 25
14 37 -1 11 -15 11 -16 -7 -9 -15 5 -17 4 -9 -4 9 -9 17 -9 33 -1 15 9 27 9
41 1 13 -7 20 -7 20 -1 0 6 6 8 14 5 7 -3 20 2 29 10 9 9 21 16 27 16 7 0 9 8
5 20 -3 11 -2 20 3 20 13 0 21 -35 23 -95 2 -46 2 -45 9 20 4 39 8 236 9 440
1 203 6 372 11 375 4 3 54 21 111 40 69 24 94 36 78 38 -27 4 -51 22 -29 22 9
0 6 8 -10 25 -12 13 -27 22 -32 19 -5 -3 -7 -1 -6 4 2 6 -35 49 -82 97 -66 68
-81 88 -70 95 18 12 6 11 -40 -1z"/>
<path d="M13206 13349 c9 -44 10 -45 16 -14 3 14 -1 30 -8 36 -12 9 -13 5 -8
-22z"/>
<path d="M7258 13363 c-2 -5 -1 -98 2 -208 4 -165 6 -188 13 -130 4 39 9 132
12 208 4 115 3 137 -9 137 -8 0 -16 -3 -18 -7z"/>
<path d="M13090 13291 c0 -5 -9 -11 -20 -14 -11 -3 -20 -10 -20 -16 0 -6 14
-4 35 7 36 18 45 32 20 32 -8 0 -15 -4 -15 -9z"/>
<path d="M12751 12814 c0 -11 3 -14 6 -6 3 7 2 16 -1 19 -3 4 -6 -2 -5 -13z"/>
<path d="M13211 12720 c-6 -82 -11 -114 -21 -124 -7 -7 -10 -3 -10 11 0 12 -4
25 -10 28 -5 3 -10 16 -10 28 0 12 -5 29 -10 37 -6 10 -10 -48 -10 -172 l0
-188 43 0 42 0 -3 172 c-1 95 -4 191 -5 213 l-4 40 -2 -45z"/>
<path d="M14607 12165 c-314 -60 -523 -265 -566 -555 -6 -41 -11 -139 -12
-217 -1 -164 5 -156 -107 -153 -37 1 -113 2 -169 1 l-103 -1 0 -215 0 -215 38
-1 c20 -1 102 -2 182 -3 l145 -1 3 -812 2 -812 261 -3 c143 -2 263 -1 265 1 2
2 4 368 4 813 l0 808 133 1 c72 1 141 3 152 4 11 1 64 2 118 3 l97 2 0 169 c0
92 -3 189 -6 214 l-7 47 -241 2 -241 3 0 140 c1 163 15 220 70 277 57 59 96
72 215 76 68 2 124 -2 158 -11 52 -14 54 -14 62 7 18 47 92 367 87 379 -3 7
-31 19 -63 26 -33 8 -75 18 -94 23 -65 17 -299 19 -383 3z"/>
<path d="M8347 12143 c-10 -9 -9 -2951 1 -2956 7 -5 300 -11 435 -8 l77 1 0
1485 0 1485 -253 0 c-140 0 -257 -3 -260 -7z"/>
<path d="M11879 12143 c0 -5 0 -254 1 -555 1 -302 -1 -548 -5 -548 -3 0 -44
30 -92 67 -173 131 -326 184 -538 186 -242 2 -453 -72 -642 -225 -344 -279
-481 -732 -356 -1177 59 -210 221 -445 376 -546 27 -17 28 -17 50 2 107 94
187 161 272 227 55 43 101 81 102 85 2 3 -20 20 -48 36 -108 63 -206 209 -245
365 -23 90 -15 279 16 370 63 189 216 336 400 385 91 24 238 20 327 -10 144
-49 255 -148 323 -289 48 -102 63 -173 63 -306 -1 -122 -19 -198 -68 -280 -69
-113 -103 -136 -427 -278 -195 -86 -238 -112 -391 -235 -240 -193 -621 -566
-882 -862 -104 -118 -187 -205 -197 -205 -5 0 -104 95 -221 211 -279 278 -284
282 -358 287 -73 5 -93 0 -152 -39 -57 -38 -85 -87 -93 -167 -10 -95 9 -125
228 -355 163 -170 300 -321 418 -460 42 -48 114 -88 173 -94 90 -9 128 14 248
158 220 261 306 359 448 513 80 88 173 189 205 225 33 36 197 206 365 376 349
353 547 524 581 503 34 -22 25 -59 -35 -133 -52 -66 -49 -67 24 -12 38 28 83
60 100 70 l31 18 1 -98 c0 -54 3 -116 7 -137 l7 -39 245 1 245 2 0 1483 0
1482 -252 3 c-139 1 -253 -1 -254 -5z"/>
<path d="M9488 12097 c-58 -17 -128 -69 -162 -122 -77 -117 -55 -293 48 -381
65 -55 121 -76 206 -77 125 0 231 62 285 168 39 78 42 186 5 258 -29 59 -86
112 -149 140 -57 25 -169 32 -233 14z"/>
<path d="M12960 12083 c-66 -24 -144 -106 -164 -173 -47 -159 11 -301 149
-366 71 -34 199 -34 270 0 66 31 107 66 142 124 25 43 28 55 28 142 0 109 -15
148 -82 213 -74 71 -232 99 -343 60z"/>
<path d="M3070 12048 c0 -7 31 -89 70 -182 38 -94 99 -247 136 -341 145 -372
173 -442 194 -490 12 -27 158 -390 325 -805 167 -415 332 -824 366 -908 l63
-153 263 4 c145 2 266 7 269 9 3 3 24 55 48 114 24 60 85 208 135 329 51 121
143 346 206 500 62 154 145 357 185 450 66 156 329 800 521 1275 44 107 79
198 79 202 0 4 -128 8 -284 8 -215 0 -286 -3 -293 -12 -5 -7 -20 -42 -32 -78
-13 -36 -59 -155 -103 -265 -73 -183 -182 -465 -278 -720 -39 -104 -203 -515
-220 -550 -9 -21 -109 -279 -162 -420 -45 -121 -47 -127 -59 -123 -11 4 -59
122 -183 453 -141 378 -237 630 -293 770 -31 77 -59 151 -64 165 -4 14 -16 48
-27 75 -10 28 -61 158 -112 290 -51 132 -108 278 -126 325 l-32 85 -296 3
c-227 2 -296 -1 -296 -10z"/>
<path d="M6534 11279 c-67 -11 -180 -52 -274 -99 -287 -144 -499 -437 -559
-774 -16 -88 -14 -339 4 -440 36 -204 137 -399 285 -546 87 -88 136 -123 246
-178 175 -89 307 -116 518 -109 157 5 241 22 344 69 75 34 173 102 222 152 24
25 49 46 56 46 7 0 16 -41 24 -110 l13 -110 238 0 239 0 -2 1033 -3 1032 -145
-1 c-80 -1 -193 -2 -252 -2 l-108 -2 0 -100 c0 -55 -4 -100 -8 -100 -5 0 -21
14 -38 31 -75 81 -270 177 -413 203 -90 17 -299 20 -387 5z m487 -479 c170
-50 301 -197 356 -400 27 -99 24 -290 -6 -398 -38 -137 -134 -260 -261 -337
-129 -78 -303 -102 -455 -63 -146 37 -295 163 -365 309 -55 114 -73 208 -67
334 13 247 156 451 380 542 107 44 294 49 418 13z"/>
<path d="M9530 11243 l-205 -3 -2 -1023 c-2 -562 1 -1027 5 -1032 4 -7 96 -8
262 -5 l255 5 0 1030 0 1030 -55 0 c-30 1 -147 -1 -260 -2z"/>
<path d="M12818 10223 c2 -798 5 -1029 15 -1035 6 -4 121 -8 253 -8 l242 0 4
43 c3 23 4 249 3 502 -1 253 -3 700 -4 993 l-1 532 -257 0 -258 0 3 -1027z"/>
<path d="M15195 11240 c-2 -4 10 -43 29 -86 18 -44 55 -131 81 -194 26 -63
108 -256 182 -429 74 -173 144 -337 155 -365 11 -28 53 -125 93 -216 117 -264
185 -420 185 -425 0 -2 13 -33 28 -67 16 -35 39 -90 52 -123 13 -33 27 -66 33
-72 6 -8 -8 -55 -43 -140 -110 -267 -180 -369 -270 -393 -60 -16 -190 -7 -264
19 -76 27 -82 26 -91 -6 -3 -14 -35 -105 -71 -201 -36 -96 -63 -180 -60 -187
12 -31 265 -84 408 -85 310 -1 508 126 671 430 53 99 281 612 487 1095 56 132
142 330 190 440 48 110 100 229 115 265 24 58 79 182 137 310 57 124 178 413
178 423 0 9 -69 11 -267 9 -148 -2 -271 -6 -274 -10 -8 -9 -54 -120 -138 -332
-38 -96 -119 -294 -180 -439 -128 -304 -216 -524 -226 -563 -4 -15 -13 -32
-20 -38 -18 -15 -25 -1 -110 225 -38 99 -131 338 -208 530 -77 193 -160 402
-184 465 -25 63 -52 128 -59 143 l-15 28 -270 -2 c-148 -1 -271 -5 -274 -9z"/>
<path d="M12146 8913 c-80 -133 -168 -265 -231 -343 -79 -99 -323 -357 -416
-442 -200 -180 -566 -465 -714 -556 -38 -24 -99 -61 -135 -84 -129 -81 -286
-175 -350 -210 l-66 -36 -229 125 c-662 361 -1137 740 -1504 1198 -107 134
-134 173 -224 325 l-62 105 -67 3 c-38 2 -68 0 -68 -4 0 -33 231 -406 339
-549 178 -235 551 -587 802 -757 52 -35 137 -94 189 -130 110 -76 432 -263
687 -399 43 -23 89 -48 102 -56 13 -9 35 -13 50 -10 57 12 345 179 659 384 98
63 332 239 464 348 355 293 631 592 824 891 50 78 157 275 151 280 -1 1 -34 4
-72 8 l-71 7 -58 -98z"/>
<path d="M7635 8992 c-9 -10 140 -320 191 -399 21 -32 70 -101 109 -153 104
-141 131 -167 80 -79 -25 45 -33 75 -15 64 5 -3 12 6 16 20 3 14 11 25 18 25
6 0 12 10 13 21 2 26 14 39 20 22 3 -7 9 -13 14 -13 6 0 7 6 1 17 -10 17 13
52 25 39 10 -9 44 64 36 77 -4 6 -1 7 7 2 10 -6 12 -4 7 9 -6 14 -3 15 13 6
25 -14 25 -10 -4 42 -105 189 -156 284 -156 290 0 7 -368 16 -375 10z m270
-40 c-3 -3 -11 0 -18 7 -9 10 -8 11 6 5 10 -3 15 -9 12 -12z m79 10 c3 -5 -8
-9 -25 -9 -19 0 -25 3 -17 9 17 10 35 10 42 0z"/>
<path d="M12894 8992 c-6 -4 -17 -25 -24 -47 -7 -22 -18 -53 -25 -70 -79 -181
-103 -233 -151 -315 -30 -52 -74 -124 -99 -160 -101 -146 -137 -202 -132 -206
5 -5 131 177 235 339 89 139 222 413 222 456 0 13 -10 14 -26 3z"/>
<path d="M7555 8980 c4 -6 11 -8 16 -5 14 9 11 15 -7 15 -8 0 -12 -5 -9 -10z"/>
<path d="M7615 8850 c-3 -5 -1 -10 4 -10 6 0 11 -12 11 -26 0 -14 4 -23 10
-19 6 4 10 -7 10 -27 0 -26 3 -30 11 -18 8 12 9 10 4 -7 -4 -15 6 -42 36 -90
23 -37 51 -85 62 -105 11 -21 24 -38 29 -38 5 0 1 11 -8 25 -9 14 -13 25 -10
25 4 0 0 10 -8 22 -20 28 -20 39 -1 31 13 -5 14 -2 4 21 -7 14 -16 26 -21 26
-4 0 -8 5 -8 11 0 6 -18 38 -40 71 -22 33 -40 62 -40 65 0 14 -39 52 -45 43z
m130 -210 c3 -5 2 -10 -4 -10 -5 0 -13 5 -16 10 -3 6 -2 10 4 10 5 0 13 -4 16
-10z"/>
<path d="M8205 8610 c10 -11 20 -20 22 -20 2 0 -2 9 -9 20 -7 11 -17 20 -22
20 -5 0 -1 -9 9 -20z"/>
<path d="M11824 8158 c-54 -57 -125 -127 -158 -156 -180 -156 -315 -278 -315
-285 -1 -4 4 -6 10 -5 6 2 13 -13 16 -32 2 -19 5 -44 7 -55 1 -11 8 -30 14
-41 6 -12 9 -24 5 -27 -3 -4 7 -21 21 -38 18 -21 23 -34 16 -39 -7 -4 1 -18
22 -39 27 -26 30 -34 18 -41 -8 -5 -12 -12 -9 -15 4 -3 40 19 82 49 197 141
602 511 576 526 -6 4 -8 13 -5 19 7 11 -18 42 -76 98 -16 15 -28 33 -28 40 0
8 -4 12 -9 9 -8 -5 -17 7 -19 27 -2 10 -29 37 -38 37 -3 0 0 -7 7 -17 12 -14
12 -16 -1 -11 -8 3 -15 15 -14 27 0 16 -5 21 -23 21 -13 0 -23 -5 -23 -12 0
-6 -3 -8 -7 -5 -3 4 1 15 9 24 18 22 31 43 25 43 -3 0 -49 -46 -103 -102z"/>
<path d="M12030 8111 c0 -5 5 -13 10 -16 6 -3 10 -2 10 4 0 5 -4 13 -10 16 -5
3 -10 2 -10 -4z"/>
<path d="M8145 8010 c10 -11 20 -20 23 -20 3 0 -3 9 -13 20 -10 11 -20 20 -23
20 -3 0 3 -9 13 -20z"/>
<path d="M8580 7576 c0 -2 8 -10 18 -17 15 -13 16 -12 3 4 -13 16 -21 21 -21
13z"/>
<path d="M8756 7419 c26 -29 398 -311 531 -401 59 -41 142 -94 183 -118 41
-25 95 -58 120 -75 25 -17 77 -48 115 -69 39 -21 111 -62 160 -92 85 -50 232
-130 320 -175 l41 -21 89 54 c50 30 99 58 110 63 18 8 17 9 -9 13 -22 3 -26 6
-15 13 12 7 11 9 -2 9 -22 0 -45 -26 -27 -32 8 -3 6 -7 -5 -11 -9 -3 -17 -2
-17 3 0 5 -7 7 -15 4 -8 -4 -13 -10 -10 -14 3 -5 -5 -12 -17 -16 -12 -3 -33
-17 -47 -30 l-26 -24 -3 29 c-3 28 -15 36 -175 119 -162 83 -369 199 -464 260
-53 34 -249 173 -442 314 -86 62 -211 146 -206 138 9 -15 -3 -12 -31 6 -38 26
-40 9 -3 -26 33 -31 33 -31 -26 6 -33 20 -76 50 -95 66 -41 33 -61 37 -34 7z
m214 -90 c0 -6 -4 -7 -10 -4 -5 3 -10 11 -10 16 0 6 5 7 10 4 6 -3 10 -11 10
-16z"/>
<path d="M9500 7404 c0 -4 8 -13 18 -20 15 -12 13 -13 -17 -7 -23 4 -32 3 -27
-5 3 -6 -1 -18 -10 -26 -9 -9 -13 -23 -10 -32 3 -8 2 -13 -3 -10 -12 8 -22
-20 -15 -39 5 -11 2 -13 -10 -9 -12 5 -15 2 -10 -10 4 -9 1 -16 -6 -16 -7 0
-10 -7 -6 -15 3 -8 0 -15 -6 -15 -9 0 -9 -3 0 -12 17 -17 15 -31 -4 -24 -12 5
-15 2 -10 -10 4 -10 0 -21 -9 -28 -14 -10 1 -23 92 -83 152 -100 223 -141 343
-202 58 -30 110 -57 115 -61 12 -10 296 -160 301 -160 2 0 4 67 4 149 0 175 7
241 26 241 8 0 14 5 14 10 0 7 -6 7 -20 0 -35 -18 -114 22 -570 290 -8 5 -50
29 -92 54 -79 47 -88 51 -88 40z"/>
<path d="M11093 6986 c-13 -6 -25 -17 -28 -24 -4 -10 28 7 64 35 9 7 -15 0
-36 -11z"/>
<path d="M11010 6943 c-14 -9 -28 -21 -31 -26 -4 -5 -11 -7 -17 -3 -13 8 -161
-70 -185 -97 -10 -11 -20 -17 -23 -14 -4 3 -15 -4 -25 -16 -10 -12 -18 -18
-19 -13 0 5 -10 -2 -22 -15 -13 -13 -29 -24 -37 -24 -8 0 -15 -6 -17 -13 -1
-7 0 -8 3 -2 2 5 9 8 14 5 10 -7 130 55 142 72 4 7 14 10 21 7 9 -3 17 3 21
15 4 12 15 21 27 21 24 0 138 67 138 81 0 6 5 7 10 4 6 -3 13 1 16 9 3 9 11
13 17 9 6 -3 7 -1 3 5 -9 15 -7 15 -36 -5z"/>
<path d="M10581 6701 c-9 -6 -10 -11 -2 -15 6 -4 11 -3 11 3 0 6 7 8 15 5 8
-4 15 -1 15 5 0 13 -20 14 -39 2z"/>
<path d="M10530 6660 c-13 -11 -20 -23 -16 -28 4 -4 13 0 19 9 7 9 19 18 27
21 9 3 10 7 3 11 -6 4 -21 -2 -33 -13z"/>
<path d="M10435 6627 c22 -18 65 -23 65 -7 0 6 -8 10 -17 10 -10 0 -29 3 -43
6 -24 6 -25 6 -5 -9z"/>
</g>
</svg>
