<?xml version="1.0" standalone="no"?>
<!DOCTYPE svg PUBLIC "-//W3C//DTD SVG 20010904//EN"
 "http://www.w3.org/TR/2001/REC-SVG-20010904/DTD/svg10.dtd">
<svg version="1.0" xmlns="http://www.w3.org/2000/svg"
 width="1638.000000pt" height="878.000000pt" viewBox="0 0 1638.000000 878.000000"
 preserveAspectRatio="xMidYMid meet">

<g transform="translate(0.000000,878.000000) scale(0.100000,-0.100000)"
fill="#000000" stroke="none">
<path d="M8045 8103 c-66 -19 -133 -38 -150 -43 -58 -16 -220 -68 -250 -81
l-30 -12 35 -6 c30 -5 32 -7 15 -15 l-20 -8 20 -8 c19 -8 19 -9 1 -9 -13 -1
-16 -4 -8 -13 10 -13 28 -160 23 -186 -1 -8 3 -19 9 -27 6 -7 9 -19 8 -26 -5
-21 45 -13 261 42 107 27 202 49 212 49 10 0 21 6 26 12 4 7 6 83 5 168 -2 85
-1 152 2 150 2 -3 6 -74 9 -159 3 -84 10 -158 15 -163 6 -6 20 -7 32 -3 16 5
19 10 10 15 -9 5 -9 9 -1 14 14 9 15 106 1 106 -5 0 -10 16 -10 35 0 21 -5 35
-12 35 -7 0 -5 5 5 11 13 8 17 23 17 65 0 48 2 55 18 50 95 -28 99 -8 4 22
-87 28 -102 27 -247 -15z"/>
<path d="M7398 8013 c7 -3 16 -2 19 1 4 3 -2 6 -13 5 -11 0 -14 -3 -6 -6z"/>
<path d="M7358 8003 c7 -3 16 -2 19 1 4 3 -2 6 -13 5 -11 0 -14 -3 -6 -6z"/>
<path d="M7230 7975 c-79 -23 -135 -43 -125 -44 6 0 55 12 110 29 55 16 91 29
80 29 -11 -1 -40 -7 -65 -14z"/>
<path d="M7068 7923 c7 -3 16 -2 19 1 4 3 -2 6 -13 5 -11 0 -14 -3 -6 -6z"/>
<path d="M6885 7879 c-55 -17 -125 -37 -155 -45 -57 -17 -94 -33 -73 -34 18 0
322 88 341 100 30 17 -7 10 -113 -21z"/>
<path d="M8203 7719 c4 -15 -1 -23 -21 -30 -33 -13 -304 -84 -742 -195 -184
-46 -398 -102 -475 -124 -77 -21 -223 -62 -325 -91 -218 -61 -382 -112 -540
-169 -158 -57 -310 -110 -340 -119 l-25 -7 -6 -755 c-4 -415 -5 -757 -2 -761
2 -5 38 -8 79 -8 l74 0 0 707 c0 388 3 710 7 713 5 4 82 31 173 60 91 28 176
56 190 60 48 17 396 118 565 165 94 25 222 62 285 82 63 19 131 39 150 43 19
5 127 33 240 64 227 62 297 80 480 126 69 17 146 38 171 47 43 15 49 15 110
-5 35 -12 143 -41 239 -66 247 -62 705 -186 975 -262 127 -36 264 -74 305 -86
41 -11 86 -24 100 -29 14 -4 68 -20 120 -34 52 -14 188 -56 303 -92 l207 -67
2 -295 c2 -163 2 -331 2 -373 0 -43 3 -78 8 -78 11 0 100 50 120 67 15 14 17
50 19 377 1 198 1 375 0 393 -1 26 2 30 18 26 24 -6 30 -45 32 -193 l2 -115 9
165 c7 142 6 167 -7 176 -8 6 -90 33 -182 59 -92 26 -255 77 -363 112 -259 86
-657 193 -718 193 -51 0 -30 -16 53 -41 42 -12 73 -24 71 -27 -3 -2 -27 2 -53
11 -26 9 -97 27 -158 42 -60 14 -139 35 -175 46 -36 10 -110 30 -165 44 -55
13 -172 45 -260 70 -181 52 -229 66 -333 94 -97 25 -103 35 -17 26 176 -19
166 -12 -79 56 -38 10 -83 19 -99 19 -25 0 -28 -3 -24 -21z m1402 -389 c3 -5
1 -10 -4 -10 -6 0 -11 5 -11 10 0 6 2 10 4 10 3 0 8 -4 11 -10z"/>
<path d="M5610 7389 c-14 -5 -92 -29 -174 -55 l-148 -46 6 -341 c11 -599 18
-788 29 -737 11 55 25 73 34 42 4 -16 11 -21 24 -17 11 3 28 8 39 11 11 3 20
1 20 -5 0 -6 18 -11 40 -11 22 0 40 -4 40 -10 0 -19 27 -10 55 20 42 44 55 39
55 -22 0 -28 3 -48 8 -44 4 4 9 201 12 438 l5 429 108 37 c63 21 100 38 88 40
-12 2 -21 7 -21 12 0 5 -37 47 -82 93 -80 81 -138 145 -138 153 0 2 7 4 15 4
8 0 15 5 15 10 0 6 -1 10 -2 9 -2 -1 -14 -5 -28 -10z"/>
<path d="M11152 7350 c14 -22 24 -19 15 5 -4 8 -11 15 -17 15 -6 0 -6 -7 2
-20z"/>
<path d="M5208 7353 c-2 -5 -1 -100 2 -213 6 -236 16 -216 25 48 6 150 5 172
-9 172 -8 0 -16 -3 -18 -7z"/>
<path d="M11050 7280 c0 -5 -9 -10 -19 -10 -11 0 -23 -4 -26 -10 -8 -13 -5
-12 34 1 29 10 43 29 21 29 -5 0 -10 -4 -10 -10z"/>
<path d="M11157 6663 c-5 -46 -13 -83 -18 -83 -5 0 -14 20 -20 45 -6 25 -15
48 -20 51 -5 3 -9 -72 -9 -170 l0 -176 43 0 42 0 -3 177 c-3 232 -6 255 -15
156z"/>
<path d="M10701 6674 c0 -11 3 -14 6 -6 3 7 2 16 -1 19 -3 4 -6 -2 -5 -13z"/>
<path d="M12620 6164 c-278 -42 -465 -161 -563 -358 -57 -114 -68 -170 -76
-381 l-6 -190 -100 -1 c-55 0 -139 -1 -187 -2 l-88 -2 0 -215 0 -215 38 -1
c20 -1 102 -2 182 -3 l145 -1 3 -812 2 -813 255 0 c140 0 258 0 263 0 4 0 9
363 12 807 l5 808 180 6 c99 4 210 7 248 8 l67 1 0 178 c0 97 -3 194 -6 214
l-7 38 -241 2 -241 3 1 140 c0 106 4 153 18 192 21 64 83 127 145 148 56 19
208 20 279 1 59 -15 63 -12 77 54 3 19 23 99 42 177 19 79 33 149 30 156 -5
14 -101 40 -212 57 -58 9 -213 11 -265 4z"/>
<path d="M6296 6124 c-9 -23 -7 -2927 2 -2940 7 -12 247 -21 425 -16 l87 2 0
1485 0 1485 -254 0 c-222 0 -255 -2 -260 -16z"/>
<path d="M9830 6128 c0 -7 0 -254 0 -549 0 -294 -2 -538 -6 -541 -3 -4 -44 22
-90 58 -148 112 -273 163 -453 184 -366 43 -759 -155 -963 -486 -98 -158 -154
-334 -164 -513 -12 -204 38 -446 122 -600 69 -126 200 -281 287 -339 38 -25
38 -25 60 -5 93 82 197 169 279 233 54 41 97 77 98 80 0 3 -19 16 -42 29 -88
50 -151 123 -208 241 -45 92 -55 145 -55 290 0 159 19 230 91 346 67 109 154
181 279 232 75 30 246 42 334 22 149 -33 296 -150 364 -290 53 -107 70 -185
70 -315 0 -143 -26 -230 -95 -326 -61 -85 -91 -103 -426 -249 -199 -87 -293
-152 -549 -377 -133 -117 -514 -501 -658 -665 -145 -163 -227 -248 -238 -248
-5 0 -115 106 -244 235 -130 129 -251 241 -269 250 -18 8 -58 15 -91 15 -119
-1 -206 -82 -219 -206 -10 -98 7 -125 229 -357 106 -111 246 -263 311 -337
165 -189 208 -220 306 -220 72 0 116 35 258 205 171 204 325 379 416 475 39
41 103 111 141 155 69 79 359 378 590 610 110 109 228 214 343 304 49 38 92
38 92 -2 0 -22 -35 -83 -73 -124 -32 -36 -14 -36 29 0 48 40 120 87 134 87 6
0 10 -35 10 -89 0 -48 3 -108 6 -132 l6 -44 247 3 246 3 0 1482 0 1482 -252 3
c-199 2 -253 0 -253 -10z"/>
<path d="M7457 6090 c-86 -22 -161 -80 -199 -154 -13 -25 -22 -68 -25 -116 -5
-69 -3 -83 22 -139 31 -69 71 -108 148 -148 76 -38 179 -38 261 1 70 34 125
88 157 154 33 67 32 179 -1 246 -29 58 -86 111 -149 139 -52 23 -156 31 -214
17z"/>
<path d="M10917 6073 c-62 -21 -129 -81 -159 -141 -19 -38 -23 -63 -23 -137 0
-103 14 -142 74 -202 59 -59 122 -83 220 -83 72 0 92 4 146 30 109 52 165 143
165 268 0 117 -76 225 -186 265 -61 21 -172 22 -237 0z"/>
<path d="M1026 6013 c29 -70 132 -327 188 -473 31 -80 65 -165 76 -190 11 -25
48 -117 83 -205 271 -680 453 -1132 482 -1200 31 -73 71 -171 145 -360 61
-155 164 -401 172 -411 10 -13 358 -19 468 -8 l69 6 54 137 c63 156 202 492
222 536 8 17 32 75 53 130 48 121 281 690 312 760 12 28 55 131 95 230 40 99
114 279 163 400 204 501 272 669 272 677 0 4 -128 8 -284 8 -215 0 -286 -3
-293 -12 -6 -7 -16 -31 -23 -53 -7 -22 -57 -150 -110 -285 -54 -135 -125 -317
-159 -405 -116 -308 -179 -471 -246 -635 -37 -91 -93 -232 -124 -315 -65 -167
-158 -407 -172 -443 -5 -13 -14 -22 -20 -20 -10 3 -65 138 -159 393 -28 77
-78 208 -110 290 -32 83 -75 195 -95 250 -46 123 -143 373 -156 400 -5 11 -13
34 -18 50 -5 17 -53 143 -107 280 -53 138 -118 306 -144 375 l-48 125 -301 3
-301 2 16 -37z"/>
<path d="M4481 5269 c-238 -47 -492 -211 -633 -409 -143 -201 -196 -362 -205
-616 -8 -245 20 -399 103 -568 67 -135 204 -297 319 -376 68 -47 219 -116 320
-147 84 -25 102 -27 280 -27 172 -1 197 1 265 23 145 45 243 102 336 193 34
33 64 56 67 52 2 -5 10 -57 17 -116 l13 -108 239 0 238 0 -2 1032 c-3 1018 -3
1033 -23 1037 -11 2 -124 0 -252 -4 l-233 -7 0 -99 c0 -55 -3 -99 -6 -99 -3 0
-30 22 -60 49 -90 82 -252 159 -393 185 -90 17 -314 20 -390 5z m493 -481
c171 -53 300 -198 353 -398 27 -103 24 -304 -5 -400 -31 -99 -70 -165 -137
-234 -105 -107 -211 -160 -355 -176 -202 -23 -358 34 -492 179 -227 246 -223
649 10 880 71 71 167 132 242 151 121 32 275 31 384 -2z"/>
<path d="M7471 5231 l-195 -6 -2 -1020 c-2 -561 0 -1025 4 -1031 5 -7 89 -8
262 -5 l255 6 0 1030 0 1030 -65 1 c-36 0 -152 -2 -259 -5z"/>
<path d="M10767 5233 c-2 -5 -1 -468 1 -1030 l4 -1021 22 -6 c11 -3 125 -6
253 -6 l231 0 6 113 c4 61 5 299 2 527 -2 228 -4 643 -5 923 l-1 507 -254 0
c-140 0 -256 -3 -259 -7z"/>
<path d="M13140 5234 c0 -12 125 -313 297 -714 58 -135 129 -301 158 -370 29
-69 123 -286 209 -483 86 -197 156 -361 156 -365 0 -4 7 -20 15 -36 15 -28 13
-34 -36 -155 -106 -259 -179 -367 -264 -390 -69 -19 -167 -13 -252 14 -43 14
-83 25 -88 25 -6 0 -23 -35 -37 -77 -14 -43 -47 -134 -72 -203 -26 -69 -44
-130 -42 -136 5 -13 133 -51 234 -70 42 -7 120 -13 174 -14 334 -1 533 141
711 511 49 101 163 355 204 454 14 33 38 89 55 125 16 36 90 207 164 380 123
286 171 400 209 485 15 34 21 47 138 315 75 173 100 230 152 346 51 112 145
338 145 347 0 9 -69 11 -267 9 -148 -2 -271 -7 -275 -10 -3 -4 -50 -117 -103
-252 -53 -135 -105 -263 -116 -285 -52 -108 -319 -769 -319 -789 0 -8 -8 -24
-19 -37 l-18 -23 -15 30 c-8 16 -43 103 -78 194 -67 176 -299 765 -403 1020
l-62 155 -278 1 c-152 1 -277 0 -277 -2z"/>
<path d="M10105 2918 c-95 -162 -205 -322 -279 -407 -117 -133 -366 -387 -442
-451 -23 -19 -63 -53 -90 -75 -26 -22 -69 -57 -94 -79 -80 -68 -79 -67 -295
-226 -165 -122 -686 -442 -721 -443 -17 -1 -450 240 -584 324 -512 323 -910
675 -1201 1059 -78 103 -93 126 -172 260 l-62 105 -67 3 c-38 2 -68 0 -68 -3
0 -17 156 -284 233 -400 89 -132 154 -213 299 -372 136 -148 168 -178 387
-363 171 -144 445 -332 696 -477 325 -188 530 -294 555 -289 14 2 86 38 160
79 763 418 1449 1013 1795 1557 47 73 148 261 143 265 -2 1 -35 5 -74 9 l-71
7 -48 -83z"/>
<path d="M5594 2959 c8 -43 123 -283 173 -363 54 -85 223 -306 223 -291 0 3
-9 22 -20 42 -34 63 -29 74 83 194 34 37 56 68 52 77 -9 23 6 34 21 15 24 -32
15 5 -11 47 -14 22 -25 42 -25 45 0 3 -24 47 -53 98 -29 50 -59 106 -66 124
l-13 32 -185 3 -185 3 6 -26z m366 -33 c0 -6 -4 -5 -9 3 -5 7 -13 11 -19 7 -6
-3 -14 -1 -18 5 -4 8 -3 9 4 5 7 -4 12 -2 12 5 0 8 4 8 15 -1 8 -7 15 -18 15
-24z"/>
<path d="M10845 2982 c-6 -4 -19 -32 -29 -62 -37 -107 -143 -326 -204 -423
-58 -92 -74 -126 -53 -113 5 3 16 20 25 38 19 38 39 71 46 78 45 41 240 431
240 479 0 13 -11 14 -25 3z"/>
<path d="M5500 2970 c0 -5 4 -10 9 -10 6 0 13 5 16 10 3 6 -1 10 -9 10 -9 0
-16 -4 -16 -10z"/>
<path d="M5562 2844 c-1 -15 2 -22 8 -19 12 7 13 32 2 39 -4 2 -9 -7 -10 -20z"/>
<path d="M5586 2815 c-10 -26 -7 -42 5 -25 8 12 10 9 6 -13 -5 -32 19 -90 34
-82 5 4 6 0 3 -8 -5 -15 72 -147 87 -147 4 0 1 12 -7 28 -7 15 -14 33 -14 40
0 6 -4 12 -10 12 -5 0 -10 6 -10 13 1 6 15 -4 31 -23 31 -34 31 -35 16 -5 -8
17 -36 64 -62 105 -32 52 -46 67 -43 48 3 -15 1 -25 -3 -22 -5 3 -9 20 -9 37
0 41 -14 66 -24 42z"/>
<path d="M6150 2617 c0 -14 24 -57 32 -57 5 0 1 12 -9 28 -22 35 -23 36 -23
29z"/>
<path d="M10531 2373 c-1 -6 -12 -24 -25 -40 -35 -42 -98 -143 -89 -143 13 0
124 171 119 183 -3 9 -5 9 -5 0z"/>
<path d="M9747 2120 c-70 -71 -150 -148 -179 -171 -67 -52 -291 -259 -281
-259 5 0 23 9 41 20 37 23 41 19 11 -11 -12 -12 -17 -24 -12 -28 5 -3 9 -15 9
-26 0 -33 28 -145 36 -145 4 0 14 -15 22 -34 8 -18 24 -40 36 -49 13 -9 17
-17 11 -22 -6 -3 -11 -10 -11 -16 0 -28 364 272 531 437 108 106 117 118 114
149 -4 43 -22 75 -41 75 -8 0 -17 6 -20 14 -3 8 -30 41 -60 73 -29 32 -54 64
-54 72 0 11 -3 11 -15 1 -12 -10 -19 -10 -27 -2 -9 9 -7 15 8 26 10 8 16 17
13 20 -3 3 -62 -53 -132 -124z"/>
<path d="M6115 1980 c21 -22 41 -40 43 -40 9 0 -63 78 -73 79 -5 1 9 -17 30
-39z"/>
<path d="M6610 1496 c0 -2 8 -10 18 -17 15 -13 16 -12 3 4 -13 16 -21 21 -21
13z"/>
<path d="M6677 1439 c12 -12 25 -20 28 -17 3 3 -7 13 -22 23 l-28 17 22 -23z"/>
<path d="M6716 1412 c-7 -12 46 -56 264 -218 325 -242 594 -411 1058 -664
l134 -72 34 18 c19 10 34 22 34 26 0 5 7 8 15 8 16 0 77 39 83 53 2 4 14 7 27
7 24 0 49 22 38 34 -4 4 0 4 9 1 18 -7 78 20 78 35 0 6 9 10 20 10 11 0 20 5
20 10 0 12 3 13 -45 -5 -22 -8 -34 -14 -27 -15 7 0 10 -5 7 -10 -4 -6 -12 -10
-18 -9 -36 4 -59 -2 -54 -15 4 -9 -3 -16 -19 -19 -18 -3 -24 -1 -20 9 3 8 0
14 -7 14 -20 0 -40 -17 -33 -28 3 -5 -1 -12 -9 -16 -8 -3 -15 -1 -15 4 0 6 -5
10 -11 10 -6 0 -8 -9 -4 -21 6 -19 4 -21 -17 -16 -19 5 -27 1 -42 -23 -20 -36
-36 -39 -36 -7 0 34 -7 40 -125 98 -136 69 -413 222 -480 266 -112 74 -402
280 -579 410 -39 29 -65 42 -77 38 -14 -5 -17 -2 -13 8 2 7 -3 20 -12 28 -16
12 -17 12 -11 -4 6 -16 4 -16 -23 -2 -42 22 -47 19 -16 -10 15 -14 22 -25 16
-25 -12 0 -121 77 -131 93 -4 5 -9 5 -13 -1z"/>
<path d="M7440 1396 c0 -2 15 -13 33 -25 17 -11 27 -21 20 -21 -6 0 -15 5 -18
10 -3 6 -17 10 -31 10 -13 0 -24 -4 -24 -10 0 -5 5 -10 12 -10 6 0 4 -6 -5
-12 -19 -15 -78 -148 -71 -160 3 -4 0 -8 -6 -8 -6 0 -9 -4 -5 -10 9 -14 -17
-49 -32 -43 -48 18 26 -34 242 -172 45 -29 252 -142 455 -248 41 -21 94 -50
117 -63 23 -13 44 -24 46 -24 3 0 7 84 9 186 3 163 5 187 21 198 23 18 22 29
-2 16 -28 -14 -111 18 -235 93 -55 32 -114 67 -130 76 -17 9 -67 38 -111 64
-266 158 -285 169 -285 153z"/>
<path d="M7315 1140 c3 -5 8 -10 11 -10 2 0 4 5 4 10 0 6 -5 10 -11 10 -5 0
-7 -4 -4 -10z"/>
<path d="M8238 1023 c7 -3 16 -2 19 1 4 3 -2 6 -13 5 -11 0 -14 -3 -6 -6z"/>
<path d="M9038 973 c-16 -8 -28 -18 -28 -23 0 -5 16 0 35 11 52 31 46 40 -7
12z"/>
<path d="M8980 940 c0 -6 -4 -8 -10 -5 -5 3 -10 -2 -11 -12 0 -10 -3 -13 -6
-5 -2 6 -9 12 -15 12 -6 0 -7 -7 -4 -16 4 -11 1 -14 -12 -12 -9 1 -24 -2 -32
-7 -8 -5 -19 -10 -25 -10 -24 -2 -127 -60 -136 -77 -6 -11 -17 -17 -25 -14 -9
3 -12 1 -9 -4 4 -6 -7 -13 -24 -16 -17 -4 -31 -12 -31 -19 0 -6 -11 -17 -25
-23 -25 -11 -34 -32 -15 -32 6 0 10 5 10 10 0 6 8 10 18 10 9 0 34 11 53 25
20 13 39 21 43 18 3 -3 8 2 12 11 3 9 14 16 25 16 10 0 24 9 32 20 8 11 17 17
20 13 4 -3 7 -1 7 6 0 7 4 9 10 6 11 -7 53 19 44 27 -3 3 8 9 23 13 37 9 107
61 94 70 -6 3 -11 1 -11 -5z"/>
<path d="M8545 690 c-19 -8 -19 -9 3 -9 12 -1 22 4 22 9 0 6 -1 10 -2 9 -2 0
-12 -4 -23 -9z"/>
</g>
</svg>
